<svg id="Layer_1" data-name="Layer 1" xmlns="http://www.w3.org/2000/svg" viewBox="0 0 668.12 541.72"><defs><style>.cls-1{fill:#231f20;}</style></defs><path class="cls-1" d="M296.94,60q-47.16,27-76.24,46.5T161.51,158q-28.09,30-43.13,63T97.31,306h48.15q62.19,0,97.81,30.6t35.62,89.78q0,42.13-31.6,78.75t-86.78,36.62q-86.29,0-123.39-56.57T0,336.45q0-65.1,28.09-118.65a419.88,419.88,0,0,1,68.22-95.63q41.12-43,87.27-73.09T260.83,0Zm371.18,0Q621,87,591.88,106.49T532.69,158q-29.12,31-43.64,63.5T468.49,306h48.15q62.19,0,97.81,30.6t35.61,89.78q0,42.13-31.6,78.75t-86.77,36.62q-86.3,0-123.39-56.57t-37.12-148.7q0-65.1,28.09-118.65a419.88,419.88,0,0,1,68.22-95.63q41.11-43,87.27-73.09T632,0Z"/></svg>