<?xml version="1.0" encoding="utf-8"?>
<!-- Generator: Adobe Illustrator 24.1.2, SVG Export Plug-In . SVG Version: 6.00 Build 0)  -->
<svg version="1.1" id="Layer_1" xmlns="http://www.w3.org/2000/svg" xmlns:xlink="http://www.w3.org/1999/xlink" x="0px" y="0px"
	 viewBox="0 0 24 24" style="enable-background:new 0 0 24 24;" xml:space="preserve">
<path d="M22.5,5.5c-0.8,0.3-1.6,0.6-2.5,0.7c0.9-0.5,1.6-1.4,1.9-2.4c-0.8,0.5-1.8,0.9-2.7,1C18.4,4,17.3,3.5,16,3.5
	c-2.4,0-4.3,1.9-4.3,4.3c0,0.3,0,0.7,0.1,1C8.3,8.6,5.1,6.9,3,4.3C2.6,4.9,2.4,5.6,2.4,6.4c0,1.5,0.8,2.8,1.9,3.6
	c-0.7,0-1.4-0.2-2-0.5c0,0,0,0,0,0.1c0,2.1,1.5,3.8,3.5,4.2c-0.4,0.1-0.7,0.2-1.1,0.2c-0.3,0-0.5,0-0.8-0.1c0.5,1.7,2.1,3,4,3
	c-1.5,1.2-3.3,1.8-5.4,1.8c-0.3,0-0.7,0-1-0.1c1.9,1.2,4.2,1.9,6.6,1.9c7.9,0,12.3-6.6,12.3-12.3c0-0.2,0-0.4,0-0.6
	C21.2,7.1,21.9,6.4,22.5,5.5z"/>
</svg>
