<?xml version="1.0" encoding="utf-8"?>
<!-- Generator: Adobe Illustrator 24.1.2, SVG Export Plug-In . SVG Version: 6.00 Build 0)  -->
<svg version="1.1" id="Layer_1" xmlns="http://www.w3.org/2000/svg" xmlns:xlink="http://www.w3.org/1999/xlink" x="0px" y="0px"
	 viewBox="0 0 24 24" style="enable-background:new 0 0 24 24;" xml:space="preserve">
<path d="M12,2.8c-1.8,0-3.4,0.8-4.4,2S6,7.6,6,9.4s0.6,3.4,1.6,4.6s2.6,2,4.4,2c1.8,0,3.4-0.8,4.4-2v2c0,1-0.3,1.9-1,2.5
	c-0.7,0.6-1.7,1.1-3.2,1.1C9.1,19.6,8,18,8,16.4H6.4c0,2.4,2.1,4.8,5.8,4.8c1.9,0,3.3-0.6,4.3-1.5c1-1,1.5-2.3,1.5-3.7V9.4V3.2h-1.6
	v1.6C15.4,3.6,13.8,2.8,12,2.8z M12,4.4c1.4,0,2.4,0.5,3.2,1.4c0.8,0.9,1.2,2.1,1.2,3.6s-0.4,2.7-1.2,3.6c-0.8,0.9-1.8,1.4-3.2,1.4
	S9.6,13.9,8.8,13s-1.2-2.1-1.2-3.6s0.4-2.7,1.2-3.6S10.6,4.4,12,4.4z"/>
</svg>
