<?xml version="1.0" encoding="utf-8"?>
<!-- Generator: Adobe Illustrator 24.1.2, SVG Export Plug-In . SVG Version: 6.00 Build 0)  -->
<svg version="1.1" id="Layer_1" xmlns="http://www.w3.org/2000/svg" xmlns:xlink="http://www.w3.org/1999/xlink" x="0px" y="0px"
	 viewBox="0 0 30 30" style="enable-background:new 0 0 30 30;" xml:space="preserve">
<g id="XMLID_834_">
	<path id="XMLID_835_" d="M9.5,15.8h2.5v10.5c0,0.2,0.2,0.4,0.4,0.4h4.3c0.2,0,0.4-0.2,0.4-0.4V15.8H20c0.2,0,0.3-0.1,0.4-0.3
		l0.4-3.9c0-0.1,0-0.2-0.1-0.3c-0.1-0.1-0.2-0.1-0.3-0.1h-3.4V8.8c0-0.7,0.4-1.1,1.2-1.1c0.1,0,2.2,0,2.2,0c0.2,0,0.4-0.2,0.4-0.4
		V3.8c0-0.2-0.2-0.4-0.4-0.4h-3c0,0-0.1,0-0.1,0c-0.5,0-2.4,0.1-3.8,1.4c-1.6,1.5-1.4,3.2-1.3,3.5v2.8H9.5c-0.2,0-0.4,0.2-0.4,0.4
		v3.8C9.1,15.6,9.3,15.8,9.5,15.8z"/>
</g>
</svg>
